<mxfile host="app.diagrams.net" modified="2024-05-09T05:42:52.045Z" agent="Mozilla/5.0 (Windows NT 10.0; Win64; x64) AppleWebKit/537.36 (KHTML, like Gecko) Chrome/124.0.0.0 Safari/537.36" etag="jgTpOTCM4YrvkX_Ak_SH" version="24.3.1" type="device">
  <diagram id="R2lEEEUBdFMjLlhIrx00" name="Page-1">
    <mxGraphModel dx="2707" dy="1085" grid="1" gridSize="10" guides="1" tooltips="1" connect="1" arrows="1" fold="1" page="1" pageScale="1" pageWidth="850" pageHeight="1100" math="0" shadow="0" extFonts="Permanent Marker^https://fonts.googleapis.com/css?family=Permanent+Marker">
      <root>
        <mxCell id="0" />
        <mxCell id="1" parent="0" />
        <mxCell id="i-BukDn5pMCgzy467oJG-117" style="rounded=0;orthogonalLoop=1;jettySize=auto;html=1;endArrow=none;endFill=0;" edge="1" parent="1" source="i-BukDn5pMCgzy467oJG-1" target="i-BukDn5pMCgzy467oJG-115">
          <mxGeometry relative="1" as="geometry">
            <Array as="points">
              <mxPoint x="180" y="360" />
              <mxPoint x="180" y="520" />
            </Array>
          </mxGeometry>
        </mxCell>
        <mxCell id="i-BukDn5pMCgzy467oJG-118" value="1" style="edgeLabel;html=1;align=center;verticalAlign=middle;resizable=0;points=[];" vertex="1" connectable="0" parent="i-BukDn5pMCgzy467oJG-117">
          <mxGeometry x="-0.9147" y="-3" relative="1" as="geometry">
            <mxPoint as="offset" />
          </mxGeometry>
        </mxCell>
        <mxCell id="i-BukDn5pMCgzy467oJG-1" value="Patient" style="rounded=0;whiteSpace=wrap;html=1;" vertex="1" parent="1">
          <mxGeometry x="-230" y="330" width="120" height="60" as="geometry" />
        </mxCell>
        <mxCell id="i-BukDn5pMCgzy467oJG-3" style="rounded=0;orthogonalLoop=1;jettySize=auto;html=1;endArrow=none;endFill=0;entryX=0.5;entryY=0;entryDx=0;entryDy=0;" edge="1" parent="1" source="i-BukDn5pMCgzy467oJG-2" target="i-BukDn5pMCgzy467oJG-1">
          <mxGeometry relative="1" as="geometry" />
        </mxCell>
        <mxCell id="i-BukDn5pMCgzy467oJG-2" value="InsuranceProvider" style="ellipse;whiteSpace=wrap;html=1;" vertex="1" parent="1">
          <mxGeometry x="-400" y="100" width="120" height="80" as="geometry" />
        </mxCell>
        <mxCell id="i-BukDn5pMCgzy467oJG-5" style="rounded=0;orthogonalLoop=1;jettySize=auto;html=1;endArrow=none;endFill=0;" edge="1" parent="1" source="i-BukDn5pMCgzy467oJG-4" target="i-BukDn5pMCgzy467oJG-1">
          <mxGeometry relative="1" as="geometry" />
        </mxCell>
        <mxCell id="i-BukDn5pMCgzy467oJG-4" value="MedicalHistory" style="ellipse;whiteSpace=wrap;html=1;" vertex="1" parent="1">
          <mxGeometry x="-230" y="80" width="120" height="80" as="geometry" />
        </mxCell>
        <mxCell id="i-BukDn5pMCgzy467oJG-6" value="Doctor" style="rounded=0;whiteSpace=wrap;html=1;" vertex="1" parent="1">
          <mxGeometry x="620" y="330" width="120" height="60" as="geometry" />
        </mxCell>
        <mxCell id="i-BukDn5pMCgzy467oJG-8" style="rounded=0;orthogonalLoop=1;jettySize=auto;html=1;endArrow=none;endFill=0;" edge="1" parent="1" source="i-BukDn5pMCgzy467oJG-7" target="i-BukDn5pMCgzy467oJG-6">
          <mxGeometry relative="1" as="geometry" />
        </mxCell>
        <mxCell id="i-BukDn5pMCgzy467oJG-7" value="Qualification" style="ellipse;shape=doubleEllipse;whiteSpace=wrap;html=1;" vertex="1" parent="1">
          <mxGeometry x="710" y="80" width="120" height="80" as="geometry" />
        </mxCell>
        <mxCell id="i-BukDn5pMCgzy467oJG-10" style="rounded=0;orthogonalLoop=1;jettySize=auto;html=1;entryX=1;entryY=0.5;entryDx=0;entryDy=0;endArrow=none;endFill=0;" edge="1" parent="1" source="i-BukDn5pMCgzy467oJG-9" target="i-BukDn5pMCgzy467oJG-6">
          <mxGeometry relative="1" as="geometry" />
        </mxCell>
        <mxCell id="i-BukDn5pMCgzy467oJG-9" value="Specialization" style="ellipse;shape=doubleEllipse;whiteSpace=wrap;html=1;" vertex="1" parent="1">
          <mxGeometry x="860" y="180" width="120" height="80" as="geometry" />
        </mxCell>
        <mxCell id="i-BukDn5pMCgzy467oJG-13" style="rounded=0;orthogonalLoop=1;jettySize=auto;html=1;endArrow=none;endFill=0;" edge="1" parent="1" source="i-BukDn5pMCgzy467oJG-12" target="i-BukDn5pMCgzy467oJG-6">
          <mxGeometry relative="1" as="geometry" />
        </mxCell>
        <mxCell id="i-BukDn5pMCgzy467oJG-12" value="Experience" style="ellipse;whiteSpace=wrap;html=1;" vertex="1" parent="1">
          <mxGeometry x="510" y="80" width="120" height="80" as="geometry" />
        </mxCell>
        <mxCell id="i-BukDn5pMCgzy467oJG-72" style="edgeStyle=orthogonalEdgeStyle;rounded=0;orthogonalLoop=1;jettySize=auto;html=1;entryX=0.5;entryY=0;entryDx=0;entryDy=0;endArrow=none;endFill=0;" edge="1" parent="1" target="i-BukDn5pMCgzy467oJG-71">
          <mxGeometry relative="1" as="geometry">
            <mxPoint x="1650" y="400" as="sourcePoint" />
          </mxGeometry>
        </mxCell>
        <mxCell id="i-BukDn5pMCgzy467oJG-74" value="M" style="edgeLabel;html=1;align=center;verticalAlign=middle;resizable=0;points=[];" vertex="1" connectable="0" parent="i-BukDn5pMCgzy467oJG-72">
          <mxGeometry x="-0.856" y="-2" relative="1" as="geometry">
            <mxPoint as="offset" />
          </mxGeometry>
        </mxCell>
        <mxCell id="i-BukDn5pMCgzy467oJG-14" value="Staff" style="rounded=0;whiteSpace=wrap;html=1;" vertex="1" parent="1">
          <mxGeometry x="1590" y="340" width="120" height="60" as="geometry" />
        </mxCell>
        <mxCell id="i-BukDn5pMCgzy467oJG-17" style="rounded=0;orthogonalLoop=1;jettySize=auto;html=1;endArrow=none;endFill=0;" edge="1" parent="1" source="i-BukDn5pMCgzy467oJG-15" target="i-BukDn5pMCgzy467oJG-14">
          <mxGeometry relative="1" as="geometry" />
        </mxCell>
        <mxCell id="i-BukDn5pMCgzy467oJG-15" value="Password" style="ellipse;whiteSpace=wrap;html=1;" vertex="1" parent="1">
          <mxGeometry x="1590" y="80" width="120" height="80" as="geometry" />
        </mxCell>
        <mxCell id="i-BukDn5pMCgzy467oJG-30" style="rounded=0;orthogonalLoop=1;jettySize=auto;html=1;entryX=0;entryY=0.5;entryDx=0;entryDy=0;endArrow=none;endFill=0;" edge="1" parent="1" source="i-BukDn5pMCgzy467oJG-21" target="i-BukDn5pMCgzy467oJG-1">
          <mxGeometry relative="1" as="geometry" />
        </mxCell>
        <mxCell id="i-BukDn5pMCgzy467oJG-21" value="&lt;u&gt;&lt;font style=&quot;font-size: 18px;&quot;&gt;&lt;b&gt;ID&lt;/b&gt;&lt;/font&gt;&lt;/u&gt;" style="ellipse;whiteSpace=wrap;html=1;" vertex="1" parent="1">
          <mxGeometry x="-510" y="450" width="120" height="80" as="geometry" />
        </mxCell>
        <mxCell id="i-BukDn5pMCgzy467oJG-32" style="rounded=0;orthogonalLoop=1;jettySize=auto;html=1;entryX=0.5;entryY=1;entryDx=0;entryDy=0;endArrow=none;endFill=0;" edge="1" parent="1" source="i-BukDn5pMCgzy467oJG-22" target="i-BukDn5pMCgzy467oJG-1">
          <mxGeometry relative="1" as="geometry" />
        </mxCell>
        <mxCell id="i-BukDn5pMCgzy467oJG-22" value="Name" style="ellipse;whiteSpace=wrap;html=1;" vertex="1" parent="1">
          <mxGeometry x="-90" y="580" width="120" height="80" as="geometry" />
        </mxCell>
        <mxCell id="i-BukDn5pMCgzy467oJG-28" style="rounded=0;orthogonalLoop=1;jettySize=auto;html=1;endArrow=none;endFill=0;entryX=0;entryY=0.5;entryDx=0;entryDy=0;" edge="1" parent="1" source="i-BukDn5pMCgzy467oJG-23" target="i-BukDn5pMCgzy467oJG-1">
          <mxGeometry relative="1" as="geometry" />
        </mxCell>
        <mxCell id="i-BukDn5pMCgzy467oJG-23" value="Email" style="ellipse;whiteSpace=wrap;html=1;" vertex="1" parent="1">
          <mxGeometry x="-510" y="210" width="120" height="80" as="geometry" />
        </mxCell>
        <mxCell id="i-BukDn5pMCgzy467oJG-29" style="rounded=0;orthogonalLoop=1;jettySize=auto;html=1;entryX=0;entryY=0.5;entryDx=0;entryDy=0;endArrow=none;endFill=0;" edge="1" parent="1" source="i-BukDn5pMCgzy467oJG-24" target="i-BukDn5pMCgzy467oJG-1">
          <mxGeometry relative="1" as="geometry" />
        </mxCell>
        <mxCell id="i-BukDn5pMCgzy467oJG-24" value="Address" style="ellipse;whiteSpace=wrap;html=1;" vertex="1" parent="1">
          <mxGeometry x="-570" y="320" width="120" height="80" as="geometry" />
        </mxCell>
        <mxCell id="i-BukDn5pMCgzy467oJG-34" style="rounded=0;orthogonalLoop=1;jettySize=auto;html=1;entryX=0.5;entryY=0;entryDx=0;entryDy=0;endArrow=none;endFill=0;" edge="1" parent="1" source="i-BukDn5pMCgzy467oJG-25" target="i-BukDn5pMCgzy467oJG-1">
          <mxGeometry relative="1" as="geometry" />
        </mxCell>
        <mxCell id="i-BukDn5pMCgzy467oJG-25" value="ContactNo" style="ellipse;whiteSpace=wrap;html=1;" vertex="1" parent="1">
          <mxGeometry x="-60" y="100" width="120" height="80" as="geometry" />
        </mxCell>
        <mxCell id="i-BukDn5pMCgzy467oJG-31" style="rounded=0;orthogonalLoop=1;jettySize=auto;html=1;entryX=0.5;entryY=1;entryDx=0;entryDy=0;endArrow=none;endFill=0;" edge="1" parent="1" source="i-BukDn5pMCgzy467oJG-26" target="i-BukDn5pMCgzy467oJG-1">
          <mxGeometry relative="1" as="geometry" />
        </mxCell>
        <mxCell id="i-BukDn5pMCgzy467oJG-26" value="DOB" style="ellipse;whiteSpace=wrap;html=1;" vertex="1" parent="1">
          <mxGeometry x="-240" y="660" width="120" height="80" as="geometry" />
        </mxCell>
        <mxCell id="i-BukDn5pMCgzy467oJG-33" style="rounded=0;orthogonalLoop=1;jettySize=auto;html=1;entryX=0.5;entryY=1;entryDx=0;entryDy=0;endArrow=none;endFill=0;" edge="1" parent="1" source="i-BukDn5pMCgzy467oJG-27" target="i-BukDn5pMCgzy467oJG-1">
          <mxGeometry relative="1" as="geometry" />
        </mxCell>
        <mxCell id="i-BukDn5pMCgzy467oJG-27" value="Age" style="ellipse;whiteSpace=wrap;html=1;dashed=1;dashPattern=12 12;" vertex="1" parent="1">
          <mxGeometry x="-380" y="580" width="120" height="80" as="geometry" />
        </mxCell>
        <mxCell id="i-BukDn5pMCgzy467oJG-44" style="rounded=0;orthogonalLoop=1;jettySize=auto;html=1;entryX=0;entryY=0.5;entryDx=0;entryDy=0;endArrow=none;endFill=0;" edge="1" parent="1" source="i-BukDn5pMCgzy467oJG-35" target="i-BukDn5pMCgzy467oJG-6">
          <mxGeometry relative="1" as="geometry" />
        </mxCell>
        <mxCell id="i-BukDn5pMCgzy467oJG-35" value="&lt;u&gt;&lt;font style=&quot;font-size: 18px;&quot;&gt;&lt;b&gt;ID&lt;/b&gt;&lt;/font&gt;&lt;/u&gt;" style="ellipse;whiteSpace=wrap;html=1;" vertex="1" parent="1">
          <mxGeometry x="380" y="460" width="120" height="80" as="geometry" />
        </mxCell>
        <mxCell id="i-BukDn5pMCgzy467oJG-46" style="rounded=0;orthogonalLoop=1;jettySize=auto;html=1;endArrow=none;endFill=0;" edge="1" parent="1" source="i-BukDn5pMCgzy467oJG-36" target="i-BukDn5pMCgzy467oJG-6">
          <mxGeometry relative="1" as="geometry" />
        </mxCell>
        <mxCell id="i-BukDn5pMCgzy467oJG-36" value="Name" style="ellipse;whiteSpace=wrap;html=1;" vertex="1" parent="1">
          <mxGeometry x="770" y="540" width="120" height="80" as="geometry" />
        </mxCell>
        <mxCell id="i-BukDn5pMCgzy467oJG-42" style="rounded=0;orthogonalLoop=1;jettySize=auto;html=1;entryX=0;entryY=0.5;entryDx=0;entryDy=0;endArrow=none;endFill=0;" edge="1" parent="1" source="i-BukDn5pMCgzy467oJG-37" target="i-BukDn5pMCgzy467oJG-6">
          <mxGeometry relative="1" as="geometry" />
        </mxCell>
        <mxCell id="i-BukDn5pMCgzy467oJG-37" value="Email" style="ellipse;whiteSpace=wrap;html=1;" vertex="1" parent="1">
          <mxGeometry x="380" y="180" width="120" height="80" as="geometry" />
        </mxCell>
        <mxCell id="i-BukDn5pMCgzy467oJG-43" style="rounded=0;orthogonalLoop=1;jettySize=auto;html=1;entryX=0;entryY=0.5;entryDx=0;entryDy=0;endArrow=none;endFill=0;" edge="1" parent="1" source="i-BukDn5pMCgzy467oJG-38" target="i-BukDn5pMCgzy467oJG-6">
          <mxGeometry relative="1" as="geometry" />
        </mxCell>
        <mxCell id="i-BukDn5pMCgzy467oJG-38" value="Address" style="ellipse;whiteSpace=wrap;html=1;" vertex="1" parent="1">
          <mxGeometry x="290" y="320" width="120" height="80" as="geometry" />
        </mxCell>
        <mxCell id="i-BukDn5pMCgzy467oJG-48" style="rounded=0;orthogonalLoop=1;jettySize=auto;html=1;entryX=1;entryY=0.5;entryDx=0;entryDy=0;endArrow=none;endFill=0;" edge="1" parent="1" source="i-BukDn5pMCgzy467oJG-39" target="i-BukDn5pMCgzy467oJG-6">
          <mxGeometry relative="1" as="geometry" />
        </mxCell>
        <mxCell id="i-BukDn5pMCgzy467oJG-39" value="ContactNo" style="ellipse;whiteSpace=wrap;html=1;" vertex="1" parent="1">
          <mxGeometry x="940" y="320" width="120" height="80" as="geometry" />
        </mxCell>
        <mxCell id="i-BukDn5pMCgzy467oJG-45" style="rounded=0;orthogonalLoop=1;jettySize=auto;html=1;endArrow=none;endFill=0;" edge="1" parent="1" source="i-BukDn5pMCgzy467oJG-40" target="i-BukDn5pMCgzy467oJG-6">
          <mxGeometry relative="1" as="geometry" />
        </mxCell>
        <mxCell id="i-BukDn5pMCgzy467oJG-40" value="DOB" style="ellipse;whiteSpace=wrap;html=1;" vertex="1" parent="1">
          <mxGeometry x="480" y="540" width="120" height="80" as="geometry" />
        </mxCell>
        <mxCell id="i-BukDn5pMCgzy467oJG-47" style="rounded=0;orthogonalLoop=1;jettySize=auto;html=1;endArrow=none;endFill=0;entryX=1;entryY=0.5;entryDx=0;entryDy=0;" edge="1" parent="1" source="i-BukDn5pMCgzy467oJG-41" target="i-BukDn5pMCgzy467oJG-6">
          <mxGeometry relative="1" as="geometry" />
        </mxCell>
        <mxCell id="i-BukDn5pMCgzy467oJG-41" value="Age" style="ellipse;whiteSpace=wrap;html=1;dashed=1;dashPattern=12 12;" vertex="1" parent="1">
          <mxGeometry x="860" y="440" width="120" height="80" as="geometry" />
        </mxCell>
        <mxCell id="i-BukDn5pMCgzy467oJG-58" style="rounded=0;orthogonalLoop=1;jettySize=auto;html=1;entryX=0;entryY=0.5;entryDx=0;entryDy=0;endArrow=none;endFill=0;" edge="1" parent="1" source="i-BukDn5pMCgzy467oJG-49" target="i-BukDn5pMCgzy467oJG-14">
          <mxGeometry relative="1" as="geometry" />
        </mxCell>
        <mxCell id="i-BukDn5pMCgzy467oJG-49" value="&lt;u&gt;&lt;font style=&quot;font-size: 18px;&quot;&gt;&lt;b&gt;ID&lt;/b&gt;&lt;/font&gt;&lt;/u&gt;" style="ellipse;whiteSpace=wrap;html=1;" vertex="1" parent="1">
          <mxGeometry x="1340" y="380" width="120" height="80" as="geometry" />
        </mxCell>
        <mxCell id="i-BukDn5pMCgzy467oJG-62" style="rounded=0;orthogonalLoop=1;jettySize=auto;html=1;endArrow=none;endFill=0;" edge="1" parent="1" source="i-BukDn5pMCgzy467oJG-50" target="i-BukDn5pMCgzy467oJG-14">
          <mxGeometry relative="1" as="geometry" />
        </mxCell>
        <mxCell id="i-BukDn5pMCgzy467oJG-50" value="Name" style="ellipse;whiteSpace=wrap;html=1;" vertex="1" parent="1">
          <mxGeometry x="1720" y="460" width="120" height="80" as="geometry" />
        </mxCell>
        <mxCell id="i-BukDn5pMCgzy467oJG-59" style="rounded=0;orthogonalLoop=1;jettySize=auto;html=1;entryX=0.25;entryY=0;entryDx=0;entryDy=0;endArrow=none;endFill=0;" edge="1" parent="1" source="i-BukDn5pMCgzy467oJG-51" target="i-BukDn5pMCgzy467oJG-14">
          <mxGeometry relative="1" as="geometry" />
        </mxCell>
        <mxCell id="i-BukDn5pMCgzy467oJG-51" value="Email" style="ellipse;whiteSpace=wrap;html=1;" vertex="1" parent="1">
          <mxGeometry x="1470" y="160" width="120" height="80" as="geometry" />
        </mxCell>
        <mxCell id="i-BukDn5pMCgzy467oJG-57" style="rounded=0;orthogonalLoop=1;jettySize=auto;html=1;entryX=0;entryY=0.5;entryDx=0;entryDy=0;endArrow=none;endFill=0;" edge="1" parent="1" source="i-BukDn5pMCgzy467oJG-52" target="i-BukDn5pMCgzy467oJG-14">
          <mxGeometry relative="1" as="geometry" />
        </mxCell>
        <mxCell id="i-BukDn5pMCgzy467oJG-52" value="Address" style="ellipse;whiteSpace=wrap;html=1;" vertex="1" parent="1">
          <mxGeometry x="1350" y="250" width="120" height="80" as="geometry" />
        </mxCell>
        <mxCell id="i-BukDn5pMCgzy467oJG-60" style="rounded=0;orthogonalLoop=1;jettySize=auto;html=1;endArrow=none;endFill=0;" edge="1" parent="1" source="i-BukDn5pMCgzy467oJG-53" target="i-BukDn5pMCgzy467oJG-14">
          <mxGeometry relative="1" as="geometry" />
        </mxCell>
        <mxCell id="i-BukDn5pMCgzy467oJG-53" value="ContactNo" style="ellipse;whiteSpace=wrap;html=1;" vertex="1" parent="1">
          <mxGeometry x="1720" y="160" width="120" height="80" as="geometry" />
        </mxCell>
        <mxCell id="i-BukDn5pMCgzy467oJG-63" style="rounded=0;orthogonalLoop=1;jettySize=auto;html=1;endArrow=none;endFill=0;entryX=0.25;entryY=1;entryDx=0;entryDy=0;" edge="1" parent="1" source="i-BukDn5pMCgzy467oJG-54" target="i-BukDn5pMCgzy467oJG-14">
          <mxGeometry relative="1" as="geometry" />
        </mxCell>
        <mxCell id="i-BukDn5pMCgzy467oJG-54" value="DOB" style="ellipse;whiteSpace=wrap;html=1;" vertex="1" parent="1">
          <mxGeometry x="1470" y="470" width="120" height="80" as="geometry" />
        </mxCell>
        <mxCell id="i-BukDn5pMCgzy467oJG-61" style="rounded=0;orthogonalLoop=1;jettySize=auto;html=1;endArrow=none;endFill=0;" edge="1" parent="1" source="i-BukDn5pMCgzy467oJG-55" target="i-BukDn5pMCgzy467oJG-14">
          <mxGeometry relative="1" as="geometry" />
        </mxCell>
        <mxCell id="i-BukDn5pMCgzy467oJG-55" value="Age" style="ellipse;whiteSpace=wrap;html=1;dashed=1;dashPattern=12 12;" vertex="1" parent="1">
          <mxGeometry x="1880" y="330" width="120" height="80" as="geometry" />
        </mxCell>
        <mxCell id="i-BukDn5pMCgzy467oJG-65" value="Role" style="rounded=0;whiteSpace=wrap;html=1;" vertex="1" parent="1">
          <mxGeometry x="1590" y="890" width="120" height="60" as="geometry" />
        </mxCell>
        <mxCell id="i-BukDn5pMCgzy467oJG-70" style="rounded=0;orthogonalLoop=1;jettySize=auto;html=1;endArrow=none;endFill=0;" edge="1" parent="1" source="i-BukDn5pMCgzy467oJG-67" target="i-BukDn5pMCgzy467oJG-65">
          <mxGeometry relative="1" as="geometry" />
        </mxCell>
        <mxCell id="i-BukDn5pMCgzy467oJG-67" value="Name" style="ellipse;whiteSpace=wrap;html=1;" vertex="1" parent="1">
          <mxGeometry x="1800" y="970" width="120" height="80" as="geometry" />
        </mxCell>
        <mxCell id="i-BukDn5pMCgzy467oJG-69" style="rounded=0;orthogonalLoop=1;jettySize=auto;html=1;endArrow=none;endFill=0;" edge="1" parent="1" source="i-BukDn5pMCgzy467oJG-68" target="i-BukDn5pMCgzy467oJG-65">
          <mxGeometry relative="1" as="geometry" />
        </mxCell>
        <mxCell id="i-BukDn5pMCgzy467oJG-68" value="&lt;u&gt;&lt;font style=&quot;font-size: 18px;&quot;&gt;&lt;b&gt;ID&lt;/b&gt;&lt;/font&gt;&lt;/u&gt;" style="ellipse;whiteSpace=wrap;html=1;" vertex="1" parent="1">
          <mxGeometry x="1800" y="770" width="120" height="80" as="geometry" />
        </mxCell>
        <mxCell id="i-BukDn5pMCgzy467oJG-73" style="edgeStyle=orthogonalEdgeStyle;rounded=0;orthogonalLoop=1;jettySize=auto;html=1;entryX=0.5;entryY=0;entryDx=0;entryDy=0;endArrow=none;endFill=0;" edge="1" parent="1" source="i-BukDn5pMCgzy467oJG-71" target="i-BukDn5pMCgzy467oJG-65">
          <mxGeometry relative="1" as="geometry" />
        </mxCell>
        <mxCell id="i-BukDn5pMCgzy467oJG-75" value="1" style="edgeLabel;html=1;align=center;verticalAlign=middle;resizable=0;points=[];" vertex="1" connectable="0" parent="i-BukDn5pMCgzy467oJG-73">
          <mxGeometry x="0.7567" y="-2" relative="1" as="geometry">
            <mxPoint y="-1" as="offset" />
          </mxGeometry>
        </mxCell>
        <mxCell id="i-BukDn5pMCgzy467oJG-71" value="Has" style="rhombus;whiteSpace=wrap;html=1;" vertex="1" parent="1">
          <mxGeometry x="1610" y="600" width="80" height="80" as="geometry" />
        </mxCell>
        <mxCell id="i-BukDn5pMCgzy467oJG-76" value="Drug" style="rounded=0;whiteSpace=wrap;html=1;" vertex="1" parent="1">
          <mxGeometry x="-460" y="1060" width="120" height="60" as="geometry" />
        </mxCell>
        <mxCell id="i-BukDn5pMCgzy467oJG-87" style="rounded=0;orthogonalLoop=1;jettySize=auto;html=1;entryX=0;entryY=0.5;entryDx=0;entryDy=0;endArrow=none;endFill=0;" edge="1" parent="1" source="i-BukDn5pMCgzy467oJG-77" target="i-BukDn5pMCgzy467oJG-76">
          <mxGeometry relative="1" as="geometry" />
        </mxCell>
        <mxCell id="i-BukDn5pMCgzy467oJG-77" value="Quantity" style="ellipse;whiteSpace=wrap;html=1;" vertex="1" parent="1">
          <mxGeometry x="-710" y="950" width="120" height="80" as="geometry" />
        </mxCell>
        <mxCell id="i-BukDn5pMCgzy467oJG-88" style="rounded=0;orthogonalLoop=1;jettySize=auto;html=1;entryX=0.25;entryY=0;entryDx=0;entryDy=0;endArrow=none;endFill=0;" edge="1" parent="1" source="i-BukDn5pMCgzy467oJG-78" target="i-BukDn5pMCgzy467oJG-76">
          <mxGeometry relative="1" as="geometry" />
        </mxCell>
        <mxCell id="i-BukDn5pMCgzy467oJG-78" value="&lt;u&gt;&lt;font style=&quot;font-size: 18px;&quot;&gt;&lt;b&gt;ID&lt;/b&gt;&lt;/font&gt;&lt;/u&gt;" style="ellipse;whiteSpace=wrap;html=1;" vertex="1" parent="1">
          <mxGeometry x="-580" y="880" width="120" height="80" as="geometry" />
        </mxCell>
        <mxCell id="i-BukDn5pMCgzy467oJG-89" style="rounded=0;orthogonalLoop=1;jettySize=auto;html=1;endArrow=none;endFill=0;" edge="1" parent="1" source="i-BukDn5pMCgzy467oJG-79" target="i-BukDn5pMCgzy467oJG-76">
          <mxGeometry relative="1" as="geometry" />
        </mxCell>
        <mxCell id="i-BukDn5pMCgzy467oJG-79" value="Name" style="ellipse;whiteSpace=wrap;html=1;" vertex="1" parent="1">
          <mxGeometry x="-460" y="770" width="120" height="80" as="geometry" />
        </mxCell>
        <mxCell id="i-BukDn5pMCgzy467oJG-90" style="rounded=0;orthogonalLoop=1;jettySize=auto;html=1;endArrow=none;endFill=0;entryX=0.75;entryY=0;entryDx=0;entryDy=0;" edge="1" parent="1" source="i-BukDn5pMCgzy467oJG-80" target="i-BukDn5pMCgzy467oJG-76">
          <mxGeometry relative="1" as="geometry" />
        </mxCell>
        <mxCell id="i-BukDn5pMCgzy467oJG-80" value="Price" style="ellipse;whiteSpace=wrap;html=1;" vertex="1" parent="1">
          <mxGeometry x="-320" y="880" width="120" height="80" as="geometry" />
        </mxCell>
        <mxCell id="i-BukDn5pMCgzy467oJG-91" style="rounded=0;orthogonalLoop=1;jettySize=auto;html=1;entryX=0.25;entryY=1;entryDx=0;entryDy=0;endArrow=none;endFill=0;" edge="1" parent="1" source="i-BukDn5pMCgzy467oJG-81" target="i-BukDn5pMCgzy467oJG-76">
          <mxGeometry relative="1" as="geometry" />
        </mxCell>
        <mxCell id="i-BukDn5pMCgzy467oJG-81" value="Classification&lt;span style=&quot;color: rgba(0, 0, 0, 0); font-family: monospace; font-size: 0px; text-align: start; text-wrap: nowrap;&quot;&gt;%3CmxGraphModel%3E%3Croot%3E%3CmxCell%20id%3D%220%22%2F%3E%3CmxCell%20id%3D%221%22%20parent%3D%220%22%2F%3E%3CmxCell%20id%3D%222%22%20value%3D%22Price%22%20style%3D%22ellipse%3BwhiteSpace%3Dwrap%3Bhtml%3D1%3B%22%20vertex%3D%221%22%20parent%3D%221%22%3E%3CmxGeometry%20x%3D%22350%22%20y%3D%22870%22%20width%3D%22120%22%20height%3D%2280%22%20as%3D%22geometry%22%2F%3E%3C%2FmxCell%3E%3C%2Froot%3E%3C%2FmxGraphModel%3E&lt;/span&gt;" style="ellipse;whiteSpace=wrap;html=1;" vertex="1" parent="1">
          <mxGeometry x="-590" y="1240" width="120" height="80" as="geometry" />
        </mxCell>
        <mxCell id="i-BukDn5pMCgzy467oJG-93" style="rounded=0;orthogonalLoop=1;jettySize=auto;html=1;entryX=0;entryY=0.5;entryDx=0;entryDy=0;endArrow=none;endFill=0;" edge="1" parent="1" source="i-BukDn5pMCgzy467oJG-82" target="i-BukDn5pMCgzy467oJG-76">
          <mxGeometry relative="1" as="geometry" />
        </mxCell>
        <mxCell id="i-BukDn5pMCgzy467oJG-82" value="Classification&lt;span style=&quot;color: rgba(0, 0, 0, 0); font-family: monospace; font-size: 0px; text-align: start; text-wrap: nowrap;&quot;&gt;%3CmxGraphModel%3E%3Croot%3E%3CmxCell%20id%3D%220%22%2F%3E%3CmxCell%20id%3D%221%22%20parent%3D%220%22%2F%3E%3CmxCell%20id%3D%222%22%20value%3D%22Price%22%20style%3D%22ellipse%3BwhiteSpace%3Dwrap%3Bhtml%3D1%3B%22%20vertex%3D%221%22%20parent%3D%221%22%3E%3CmxGeometry%20x%3D%22350%22%20y%3D%22870%22%20width%3D%22120%22%20height%3D%2280%22%20as%3D%22geometry%22%2F%3E%3C%2FmxCell%3E%3C%2Froot%3E%3C%2FmxGraphModel%3E&lt;/span&gt;" style="ellipse;whiteSpace=wrap;html=1;" vertex="1" parent="1">
          <mxGeometry x="-700" y="1150" width="120" height="80" as="geometry" />
        </mxCell>
        <mxCell id="i-BukDn5pMCgzy467oJG-92" style="rounded=0;orthogonalLoop=1;jettySize=auto;html=1;entryX=0.75;entryY=1;entryDx=0;entryDy=0;endArrow=none;endFill=0;" edge="1" parent="1" source="i-BukDn5pMCgzy467oJG-83" target="i-BukDn5pMCgzy467oJG-76">
          <mxGeometry relative="1" as="geometry" />
        </mxCell>
        <mxCell id="i-BukDn5pMCgzy467oJG-83" value="IsPrescriptionNeeded" style="ellipse;whiteSpace=wrap;html=1;" vertex="1" parent="1">
          <mxGeometry x="-310" y="1240" width="120" height="80" as="geometry" />
        </mxCell>
        <mxCell id="i-BukDn5pMCgzy467oJG-116" style="rounded=0;orthogonalLoop=1;jettySize=auto;html=1;entryX=1;entryY=0.5;entryDx=0;entryDy=0;endArrow=none;endFill=0;exitX=0.25;exitY=0;exitDx=0;exitDy=0;" edge="1" parent="1" source="i-BukDn5pMCgzy467oJG-95" target="i-BukDn5pMCgzy467oJG-115">
          <mxGeometry relative="1" as="geometry">
            <mxPoint x="500" y="820" as="targetPoint" />
            <mxPoint x="630" y="860" as="sourcePoint" />
            <Array as="points">
              <mxPoint x="660" y="900" />
            </Array>
          </mxGeometry>
        </mxCell>
        <mxCell id="i-BukDn5pMCgzy467oJG-119" value="M" style="edgeLabel;html=1;align=center;verticalAlign=middle;resizable=0;points=[];" vertex="1" connectable="0" parent="i-BukDn5pMCgzy467oJG-116">
          <mxGeometry x="-0.8834" y="-1" relative="1" as="geometry">
            <mxPoint as="offset" />
          </mxGeometry>
        </mxCell>
        <mxCell id="i-BukDn5pMCgzy467oJG-95" value="Prescription" style="rounded=0;whiteSpace=wrap;html=1;" vertex="1" parent="1">
          <mxGeometry x="630" y="1060" width="120" height="60" as="geometry" />
        </mxCell>
        <mxCell id="i-BukDn5pMCgzy467oJG-100" style="rounded=0;orthogonalLoop=1;jettySize=auto;html=1;entryX=0.75;entryY=1;entryDx=0;entryDy=0;endArrow=none;endFill=0;" edge="1" parent="1" source="i-BukDn5pMCgzy467oJG-101" target="i-BukDn5pMCgzy467oJG-95">
          <mxGeometry relative="1" as="geometry" />
        </mxCell>
        <mxCell id="i-BukDn5pMCgzy467oJG-101" value="&lt;u&gt;&lt;font style=&quot;font-size: 18px;&quot;&gt;&lt;b&gt;ID&lt;/b&gt;&lt;/font&gt;&lt;/u&gt;" style="ellipse;whiteSpace=wrap;html=1;" vertex="1" parent="1">
          <mxGeometry x="750" y="1250" width="120" height="80" as="geometry" />
        </mxCell>
        <mxCell id="i-BukDn5pMCgzy467oJG-104" style="rounded=0;orthogonalLoop=1;jettySize=auto;html=1;endArrow=none;endFill=0;entryX=1;entryY=0.5;entryDx=0;entryDy=0;" edge="1" parent="1" source="i-BukDn5pMCgzy467oJG-105" target="i-BukDn5pMCgzy467oJG-95">
          <mxGeometry relative="1" as="geometry" />
        </mxCell>
        <mxCell id="i-BukDn5pMCgzy467oJG-105" value="IssueDate" style="ellipse;whiteSpace=wrap;html=1;" vertex="1" parent="1">
          <mxGeometry x="860" y="970" width="120" height="80" as="geometry" />
        </mxCell>
        <mxCell id="i-BukDn5pMCgzy467oJG-106" style="rounded=0;orthogonalLoop=1;jettySize=auto;html=1;entryX=1;entryY=0.5;entryDx=0;entryDy=0;endArrow=none;endFill=0;" edge="1" parent="1" source="i-BukDn5pMCgzy467oJG-107" target="i-BukDn5pMCgzy467oJG-95">
          <mxGeometry relative="1" as="geometry" />
        </mxCell>
        <mxCell id="i-BukDn5pMCgzy467oJG-107" value="Qunatity" style="ellipse;whiteSpace=wrap;html=1;" vertex="1" parent="1">
          <mxGeometry x="860" y="1100" width="120" height="80" as="geometry" />
        </mxCell>
        <mxCell id="i-BukDn5pMCgzy467oJG-110" style="rounded=0;orthogonalLoop=1;jettySize=auto;html=1;entryX=0.25;entryY=1;entryDx=0;entryDy=0;endArrow=none;endFill=0;" edge="1" parent="1" source="i-BukDn5pMCgzy467oJG-111" target="i-BukDn5pMCgzy467oJG-95">
          <mxGeometry relative="1" as="geometry" />
        </mxCell>
        <mxCell id="i-BukDn5pMCgzy467oJG-111" value="Notes" style="ellipse;whiteSpace=wrap;html=1;" vertex="1" parent="1">
          <mxGeometry x="490" y="1250" width="120" height="80" as="geometry" />
        </mxCell>
        <mxCell id="i-BukDn5pMCgzy467oJG-115" value="For" style="rhombus;whiteSpace=wrap;html=1;" vertex="1" parent="1">
          <mxGeometry x="140" y="860" width="80" height="80" as="geometry" />
        </mxCell>
        <mxCell id="i-BukDn5pMCgzy467oJG-121" style="rounded=0;orthogonalLoop=1;jettySize=auto;html=1;entryX=0.5;entryY=0;entryDx=0;entryDy=0;endArrow=none;endFill=0;" edge="1" parent="1" source="i-BukDn5pMCgzy467oJG-120" target="i-BukDn5pMCgzy467oJG-95">
          <mxGeometry relative="1" as="geometry" />
        </mxCell>
        <mxCell id="i-BukDn5pMCgzy467oJG-124" value="M" style="edgeLabel;html=1;align=center;verticalAlign=middle;resizable=0;points=[];" vertex="1" connectable="0" parent="i-BukDn5pMCgzy467oJG-121">
          <mxGeometry x="0.7643" y="-3" relative="1" as="geometry">
            <mxPoint as="offset" />
          </mxGeometry>
        </mxCell>
        <mxCell id="i-BukDn5pMCgzy467oJG-122" style="rounded=0;orthogonalLoop=1;jettySize=auto;html=1;entryX=0.5;entryY=1;entryDx=0;entryDy=0;endArrow=none;endFill=0;" edge="1" parent="1" source="i-BukDn5pMCgzy467oJG-120" target="i-BukDn5pMCgzy467oJG-6">
          <mxGeometry relative="1" as="geometry" />
        </mxCell>
        <mxCell id="i-BukDn5pMCgzy467oJG-123" value="1" style="edgeLabel;html=1;align=center;verticalAlign=middle;resizable=0;points=[];" vertex="1" connectable="0" parent="i-BukDn5pMCgzy467oJG-122">
          <mxGeometry x="0.8167" y="2" relative="1" as="geometry">
            <mxPoint as="offset" />
          </mxGeometry>
        </mxCell>
        <mxCell id="i-BukDn5pMCgzy467oJG-120" value="By" style="rhombus;whiteSpace=wrap;html=1;" vertex="1" parent="1">
          <mxGeometry x="640" y="620" width="80" height="80" as="geometry" />
        </mxCell>
        <mxCell id="i-BukDn5pMCgzy467oJG-126" style="rounded=0;orthogonalLoop=1;jettySize=auto;html=1;entryX=0;entryY=0.5;entryDx=0;entryDy=0;endArrow=none;endFill=0;" edge="1" parent="1" source="i-BukDn5pMCgzy467oJG-125" target="i-BukDn5pMCgzy467oJG-95">
          <mxGeometry relative="1" as="geometry" />
        </mxCell>
        <mxCell id="i-BukDn5pMCgzy467oJG-129" value="M" style="edgeLabel;html=1;align=center;verticalAlign=middle;resizable=0;points=[];" vertex="1" connectable="0" parent="i-BukDn5pMCgzy467oJG-126">
          <mxGeometry x="0.8596" y="3" relative="1" as="geometry">
            <mxPoint as="offset" />
          </mxGeometry>
        </mxCell>
        <mxCell id="i-BukDn5pMCgzy467oJG-127" style="rounded=0;orthogonalLoop=1;jettySize=auto;html=1;endArrow=none;endFill=0;" edge="1" parent="1" source="i-BukDn5pMCgzy467oJG-125" target="i-BukDn5pMCgzy467oJG-76">
          <mxGeometry relative="1" as="geometry" />
        </mxCell>
        <mxCell id="i-BukDn5pMCgzy467oJG-128" value="N" style="edgeLabel;html=1;align=center;verticalAlign=middle;resizable=0;points=[];" vertex="1" connectable="0" parent="i-BukDn5pMCgzy467oJG-127">
          <mxGeometry x="0.8036" relative="1" as="geometry">
            <mxPoint as="offset" />
          </mxGeometry>
        </mxCell>
        <mxCell id="i-BukDn5pMCgzy467oJG-125" value="Has" style="rhombus;whiteSpace=wrap;html=1;" vertex="1" parent="1">
          <mxGeometry x="220" y="1050" width="80" height="80" as="geometry" />
        </mxCell>
        <mxCell id="i-BukDn5pMCgzy467oJG-131" value="1" style="edgeLabel;html=1;align=center;verticalAlign=middle;resizable=0;points=[];" vertex="1" connectable="0" parent="1">
          <mxGeometry x="1627.1428571428569" y="1673.0000000000002" as="geometry" />
        </mxCell>
        <mxCell id="i-BukDn5pMCgzy467oJG-132" value="Bill" style="rounded=0;whiteSpace=wrap;html=1;" vertex="1" parent="1">
          <mxGeometry x="1270" y="1180" width="120" height="60" as="geometry" />
        </mxCell>
        <mxCell id="i-BukDn5pMCgzy467oJG-137" style="rounded=0;orthogonalLoop=1;jettySize=auto;html=1;entryX=0.5;entryY=0;entryDx=0;entryDy=0;endArrow=none;endFill=0;" edge="1" parent="1" source="i-BukDn5pMCgzy467oJG-138" target="i-BukDn5pMCgzy467oJG-132">
          <mxGeometry relative="1" as="geometry" />
        </mxCell>
        <mxCell id="i-BukDn5pMCgzy467oJG-138" value="&lt;u&gt;&lt;font style=&quot;font-size: 18px;&quot;&gt;&lt;b&gt;ID&lt;/b&gt;&lt;/font&gt;&lt;/u&gt;" style="ellipse;whiteSpace=wrap;html=1;" vertex="1" parent="1">
          <mxGeometry x="1270" y="1040" width="120" height="80" as="geometry" />
        </mxCell>
        <mxCell id="i-BukDn5pMCgzy467oJG-143" style="rounded=0;orthogonalLoop=1;jettySize=auto;html=1;entryX=0;entryY=0.5;entryDx=0;entryDy=0;endArrow=none;endFill=0;" edge="1" parent="1" source="i-BukDn5pMCgzy467oJG-144" target="i-BukDn5pMCgzy467oJG-132">
          <mxGeometry relative="1" as="geometry" />
        </mxCell>
        <mxCell id="i-BukDn5pMCgzy467oJG-144" value="Time" style="ellipse;whiteSpace=wrap;html=1;" vertex="1" parent="1">
          <mxGeometry x="1080" y="1170" width="120" height="80" as="geometry" />
        </mxCell>
        <mxCell id="i-BukDn5pMCgzy467oJG-147" style="rounded=0;orthogonalLoop=1;jettySize=auto;html=1;entryX=1;entryY=0.5;entryDx=0;entryDy=0;endArrow=none;endFill=0;" edge="1" parent="1" source="i-BukDn5pMCgzy467oJG-148" target="i-BukDn5pMCgzy467oJG-132">
          <mxGeometry relative="1" as="geometry" />
        </mxCell>
        <mxCell id="i-BukDn5pMCgzy467oJG-148" value="Total" style="ellipse;whiteSpace=wrap;html=1;" vertex="1" parent="1">
          <mxGeometry x="1480" y="1170" width="120" height="80" as="geometry" />
        </mxCell>
        <mxCell id="i-BukDn5pMCgzy467oJG-152" style="edgeStyle=orthogonalEdgeStyle;rounded=0;orthogonalLoop=1;jettySize=auto;html=1;entryX=0.5;entryY=1;entryDx=0;entryDy=0;endArrow=none;endFill=0;" edge="1" parent="1" source="i-BukDn5pMCgzy467oJG-151" target="i-BukDn5pMCgzy467oJG-95">
          <mxGeometry relative="1" as="geometry">
            <mxPoint x="690" y="1130" as="targetPoint" />
          </mxGeometry>
        </mxCell>
        <mxCell id="i-BukDn5pMCgzy467oJG-155" value="M" style="edgeLabel;html=1;align=center;verticalAlign=middle;resizable=0;points=[];" vertex="1" connectable="0" parent="i-BukDn5pMCgzy467oJG-152">
          <mxGeometry x="0.7335" y="1" relative="1" as="geometry">
            <mxPoint as="offset" />
          </mxGeometry>
        </mxCell>
        <mxCell id="i-BukDn5pMCgzy467oJG-153" style="edgeStyle=orthogonalEdgeStyle;rounded=0;orthogonalLoop=1;jettySize=auto;html=1;endArrow=none;endFill=0;" edge="1" parent="1" source="i-BukDn5pMCgzy467oJG-151" target="i-BukDn5pMCgzy467oJG-132">
          <mxGeometry relative="1" as="geometry" />
        </mxCell>
        <mxCell id="i-BukDn5pMCgzy467oJG-154" value="1" style="edgeLabel;html=1;align=center;verticalAlign=middle;resizable=0;points=[];" vertex="1" connectable="0" parent="i-BukDn5pMCgzy467oJG-153">
          <mxGeometry x="0.8329" y="-2" relative="1" as="geometry">
            <mxPoint as="offset" />
          </mxGeometry>
        </mxCell>
        <mxCell id="i-BukDn5pMCgzy467oJG-151" value="For" style="rhombus;whiteSpace=wrap;html=1;" vertex="1" parent="1">
          <mxGeometry x="910" y="1370" width="80" height="80" as="geometry" />
        </mxCell>
        <mxCell id="i-BukDn5pMCgzy467oJG-157" style="rounded=0;orthogonalLoop=1;jettySize=auto;html=1;entryX=1;entryY=0.5;entryDx=0;entryDy=0;endArrow=none;endFill=0;" edge="1" parent="1" source="i-BukDn5pMCgzy467oJG-156" target="i-BukDn5pMCgzy467oJG-1">
          <mxGeometry relative="1" as="geometry" />
        </mxCell>
        <mxCell id="i-BukDn5pMCgzy467oJG-156" value="LoyalityScore" style="ellipse;whiteSpace=wrap;html=1;" vertex="1" parent="1">
          <mxGeometry x="-10" y="230" width="120" height="80" as="geometry" />
        </mxCell>
        <mxCell id="i-BukDn5pMCgzy467oJG-168" style="rounded=0;orthogonalLoop=1;jettySize=auto;html=1;entryX=1;entryY=0.5;entryDx=0;entryDy=0;endArrow=none;endFill=0;" edge="1" parent="1" source="i-BukDn5pMCgzy467oJG-161" target="i-BukDn5pMCgzy467oJG-167">
          <mxGeometry relative="1" as="geometry" />
        </mxCell>
        <mxCell id="i-BukDn5pMCgzy467oJG-170" value="M" style="edgeLabel;html=1;align=center;verticalAlign=middle;resizable=0;points=[];" vertex="1" connectable="0" parent="i-BukDn5pMCgzy467oJG-168">
          <mxGeometry x="-0.7525" y="4" relative="1" as="geometry">
            <mxPoint y="1" as="offset" />
          </mxGeometry>
        </mxCell>
        <mxCell id="i-BukDn5pMCgzy467oJG-161" value="DangerousCombination" style="rounded=0;whiteSpace=wrap;html=1;" vertex="1" parent="1">
          <mxGeometry x="-230" y="1520" width="180" height="100" as="geometry" />
        </mxCell>
        <mxCell id="i-BukDn5pMCgzy467oJG-164" style="rounded=0;orthogonalLoop=1;jettySize=auto;html=1;endArrow=none;endFill=0;" edge="1" parent="1" source="i-BukDn5pMCgzy467oJG-162" target="i-BukDn5pMCgzy467oJG-161">
          <mxGeometry relative="1" as="geometry" />
        </mxCell>
        <mxCell id="i-BukDn5pMCgzy467oJG-162" value="&lt;u&gt;&lt;font style=&quot;font-size: 18px;&quot;&gt;&lt;b&gt;ID&lt;/b&gt;&lt;/font&gt;&lt;/u&gt;" style="ellipse;whiteSpace=wrap;html=1;" vertex="1" parent="1">
          <mxGeometry x="-90" y="1390" width="120" height="80" as="geometry" />
        </mxCell>
        <mxCell id="i-BukDn5pMCgzy467oJG-165" style="rounded=0;orthogonalLoop=1;jettySize=auto;html=1;entryX=0.25;entryY=0;entryDx=0;entryDy=0;endArrow=none;endFill=0;" edge="1" parent="1" source="i-BukDn5pMCgzy467oJG-163" target="i-BukDn5pMCgzy467oJG-161">
          <mxGeometry relative="1" as="geometry" />
        </mxCell>
        <mxCell id="i-BukDn5pMCgzy467oJG-163" value="Risk" style="ellipse;whiteSpace=wrap;html=1;" vertex="1" parent="1">
          <mxGeometry x="-340" y="1390" width="120" height="80" as="geometry" />
        </mxCell>
        <mxCell id="i-BukDn5pMCgzy467oJG-169" style="rounded=0;orthogonalLoop=1;jettySize=auto;html=1;entryX=0.5;entryY=1;entryDx=0;entryDy=0;endArrow=none;endFill=0;" edge="1" parent="1" source="i-BukDn5pMCgzy467oJG-167" target="i-BukDn5pMCgzy467oJG-76">
          <mxGeometry relative="1" as="geometry" />
        </mxCell>
        <mxCell id="i-BukDn5pMCgzy467oJG-171" value="N" style="edgeLabel;html=1;align=center;verticalAlign=middle;resizable=0;points=[];" vertex="1" connectable="0" parent="i-BukDn5pMCgzy467oJG-169">
          <mxGeometry x="0.814" y="1" relative="1" as="geometry">
            <mxPoint y="-1" as="offset" />
          </mxGeometry>
        </mxCell>
        <mxCell id="i-BukDn5pMCgzy467oJG-167" value="Has" style="rhombus;whiteSpace=wrap;html=1;" vertex="1" parent="1">
          <mxGeometry x="-440" y="1530" width="80" height="80" as="geometry" />
        </mxCell>
        <mxCell id="i-BukDn5pMCgzy467oJG-173" style="rounded=0;orthogonalLoop=1;jettySize=auto;html=1;entryX=0;entryY=0.5;entryDx=0;entryDy=0;endArrow=none;endFill=0;" edge="1" parent="1" source="i-BukDn5pMCgzy467oJG-172" target="i-BukDn5pMCgzy467oJG-76">
          <mxGeometry relative="1" as="geometry" />
        </mxCell>
        <mxCell id="i-BukDn5pMCgzy467oJG-172" value="Expiry" style="ellipse;whiteSpace=wrap;html=1;" vertex="1" parent="1">
          <mxGeometry x="-750" y="1050" width="120" height="80" as="geometry" />
        </mxCell>
      </root>
    </mxGraphModel>
  </diagram>
</mxfile>
